<svg width="101" height="100" viewBox="0 0 101 100" fill="none" xmlns="http://www.w3.org/2000/svg">
<ellipse cx="50.719" cy="50.0005" rx="49.9653" ry="50" fill="#E5E5E5" fill-opacity="0.3"/>
<path d="M75.7311 33.1352L74.8561 33.42L70.1963 33.8315L68.8574 35.9414L67.898 35.6355L64.1132 32.2701L63.565 30.5188L62.8165 28.6409L60.4655 26.531L57.6928 25.9929L57.6296 27.2589L60.3496 29.9175L61.6779 31.4789L60.1809 32.2701L58.9685 31.9114L57.1446 31.1413V29.6748L54.8253 28.6831L54.0346 32.154L51.6203 32.6921L51.8628 34.6333L55.0256 35.2346L55.5738 32.1435L58.1673 32.5338L59.3691 33.2407H61.3089L62.6057 35.857L66.1269 39.4229L65.8633 40.8155L63.0274 40.4568L58.1356 42.9255L54.6144 47.1454L54.1611 49.0233H52.8854L50.5344 47.9683L48.2467 49.0233L48.816 51.4392L49.807 50.2893H51.5676L51.4411 52.3992L52.896 52.8212L54.3825 54.4987L56.7018 53.7918L59.4113 54.2138L62.574 55.0578L64.1343 55.2477L66.7911 58.265L71.9253 61.2822L68.6044 67.6121L65.1042 69.2368L63.7759 72.866L58.7049 76.2525L58.1673 78.2042C62.7743 77.0779 67.0424 74.8573 70.6101 71.7305C74.1779 68.6037 76.9402 64.6627 78.6634 60.2412C80.3865 55.8196 81.0196 51.0477 80.5092 46.3294C79.9988 41.6111 78.3599 37.0853 75.7311 33.1352Z" fill="white"/>
<path d="M54.6144 65.0064L52.5059 61.0186L54.4352 56.9569L52.4638 56.3661L50.2498 54.1401L45.337 53.0851L43.7134 49.572V51.5976H42.9966L38.7795 45.8584V41.1321L35.68 36.0893L30.7567 36.9649H27.4252L25.7489 35.9099L27.8575 34.2219L25.7489 34.7072C23.1384 39.1934 21.7554 44.2887 21.7392 49.48C21.7231 54.6713 23.0744 59.7752 25.6569 64.2775C28.2395 68.7799 31.9622 72.5216 36.4499 75.1259C40.9377 77.7301 46.032 79.1048 51.2197 79.1116C52.4574 79.0987 53.6932 79.0106 54.9202 78.8479L54.6144 75.2714C54.6144 75.2714 55.9744 69.9965 55.9744 69.7855C55.9744 69.5745 54.6144 65.0064 54.6144 65.0064Z" fill="white"/>
<path d="M32.6754 29.5271L37.9467 28.7886L40.3609 27.4699L43.0809 28.2506L47.4244 28.0079L48.9214 25.6659L51.0827 26.0245L56.3539 25.5287L57.8088 23.9251L59.9173 22.5642L62.806 22.9967L63.8602 22.8385C57.9339 20.0273 51.2388 19.2779 44.8382 20.7096C38.4376 22.1412 32.6985 25.6717 28.5322 30.7403L32.6754 29.5271ZM52.4637 22.9651L55.4367 21.3088L57.3766 22.427L54.5723 24.537L51.8944 24.8113L50.6926 24.0306L52.4637 22.9651ZM43.5342 23.1972L44.8942 23.7669L46.6126 23.1972L47.5615 24.843L43.5342 25.8979L41.6049 24.7797C41.6049 24.7797 43.492 23.5664 43.5342 23.1972Z" fill="white"/>
</svg>
