<svg width="50" height="50" viewBox="0 0 50 50" fill="none" xmlns="http://www.w3.org/2000/svg">
<path d="M25 1.5625C11.25 1.5625 0 11.7188 0 24.2188C0 30.9375 3.28125 37.1875 8.90625 41.5625L9.21875 46.875C9.21875 47.8125 9.84375 48.5938 10.625 49.0625C11.0938 49.2188 11.4062 49.375 11.875 49.375C12.3438 49.375 12.8125 49.2188 13.125 49.0625L18.4375 46.0938C20.625 46.5625 22.8125 46.875 25 46.875C38.75 46.875 50 36.7188 50 24.2188C50 11.7188 38.75 1.5625 25 1.5625Z" fill="#0088FF"/>
<path d="M40.1563 21.4063L34.2188 29.2188C32.1875 32.0313 28.4375 32.8125 25.3125 31.25L19.6875 28.4375L12.6563 32.0313C12.3438 32.1875 12.0312 32.3438 11.5625 32.3438C10.9375 32.3438 10.3125 32.0313 9.84375 31.5625C9.21875 30.7813 9.0625 29.5313 9.84375 28.75L15.7813 20.9375C17.8125 18.125 21.5625 17.3438 24.6875 18.9063L30.3125 21.7188L37.3438 18.125C38.2812 17.6563 39.375 17.9688 40.1563 18.75C40.7813 19.375 40.7813 20.4688 40.1563 21.4063Z" fill="white"/>
</svg>
