<svg width="101" height="100" viewBox="0 0 101 100" fill="none" xmlns="http://www.w3.org/2000/svg">
<ellipse cx="50.2817" cy="50.0005" rx="49.9653" ry="50" fill="#E5E5E5" fill-opacity="0.3"/>
<path d="M43.7375 21.1145C43.2457 21.3089 43.1656 21.5491 43.1084 23.0359L43.0513 24.4541L42.5366 24.6257C42.2507 24.7172 41.6788 24.9459 41.2556 25.1403L40.4779 25.4949L39.5172 24.5685C38.0304 23.1388 37.916 23.1617 35.64 25.4263C34.7022 26.3641 33.8673 27.2676 33.7643 27.4506C33.467 28.011 33.6385 28.3999 34.6679 29.4292L35.6057 30.3671L35.194 31.2592C34.9652 31.751 34.725 32.3457 34.645 32.5744L34.5192 32.9862L33.0895 33.0319C31.6713 33.0662 31.6485 33.0662 31.374 33.3865C31.1109 33.7067 31.0995 33.7525 31.0995 35.8226V37.927H35.4227H39.7459L39.7002 36.749C39.6316 34.9419 40.0319 33.6495 41.0841 32.2542C42.3307 30.6187 44.4123 29.5779 46.4824 29.5779C49.5361 29.5779 52.2467 31.6595 53.1273 34.6674C53.3332 35.3765 53.4018 37.0578 53.2531 37.6068L53.1731 37.927H57.5878H62.0025L61.9568 35.7997L61.9225 33.6724L61.545 33.3407C61.1791 33.009 61.1562 33.009 59.818 33.009H58.4685L58.3312 32.5173C58.2512 32.2542 58.011 31.6709 57.8051 31.2249L57.4277 30.4014L58.0567 29.7952C58.9946 28.8803 59.3491 28.3542 59.3491 27.8738C59.3491 27.5078 59.2004 27.3134 57.4277 25.5521C55.5406 23.6535 55.5063 23.6306 55.0145 23.6306C54.5455 23.6306 54.4655 23.6878 53.5505 24.5685C52.6355 25.4606 52.5784 25.5063 52.281 25.3805C52.1094 25.3119 51.5376 25.0717 51 24.843L50.0279 24.4427L49.9707 23.0473L49.9021 21.6634L49.5361 21.3318L49.1701 21.0001L46.5624 21.0115C45.1328 21.0115 43.8633 21.0573 43.7375 21.1145Z" fill="white"/>
<path d="M45.6246 33.112C44.5495 33.4665 43.6002 34.3358 43.2914 35.2622C43.0741 35.8912 43.0513 36.8634 43.2457 37.481L43.3715 37.927H46.4938H49.6047L49.7534 37.4924C50.2795 35.9598 49.456 34.0727 47.9349 33.3407C47.3859 33.0662 46.1164 32.9404 45.6246 33.112Z" fill="white"/>
<path d="M25.9071 42.3645C23.2536 51.0224 26.559 60.458 34.0274 65.4903C35.0453 66.188 36.9553 67.1944 37.9274 67.5604L38.6365 67.8349L38.6709 73.0388C38.7052 78.0025 38.7166 78.2655 38.9339 78.6315C39.0597 78.8488 39.3113 79.1233 39.4829 79.2606C39.8031 79.5008 39.8374 79.5008 50.0622 79.5351C61.5107 79.5579 60.8131 79.6151 61.3735 78.7688C61.6365 78.3799 61.6365 78.3799 61.6365 73.7136V69.0358H64.3586C67.3894 69.0358 67.6296 68.9901 68.1214 68.2467C68.3844 67.8578 68.3844 67.8235 68.3844 63.9349V60.0005H71.1865C74.2402 60.0005 74.5376 59.9548 74.9951 59.3715C75.3496 58.914 75.4754 58.365 75.3382 57.8618C75.2696 57.6216 73.7027 55.1626 71.8384 52.4063L68.4531 47.3739L68.2586 45.8643C68.0413 44.2516 67.9727 43.9199 67.5038 42.3531L67.2064 41.358H46.7111H26.2159L25.9071 42.3645Z" fill="white"/>
</svg>
