<svg width="101" height="100" viewBox="0 0 101 100" fill="none" xmlns="http://www.w3.org/2000/svg">
<ellipse cx="50.5732" cy="50.0005" rx="49.9653" ry="50" fill="#E5E5E5" fill-opacity="0.3"/>
<path d="M80.0825 62.2476L80.1815 32.3916L26.2899 32.4248L26.2882 29.0005H83.5503V62.2493L80.0825 62.2476ZM78.3347 67.5011L74.8687 67.4976L74.9676 37.6416L21.0761 37.6765L21.0743 34.2522H78.3365L78.3347 67.5011ZM73.2285 71.0005H17.5961V39.5005H73.2285V71.0005ZM69.7503 42.8916H21.0726V67.5011H69.7485L69.7503 42.8916ZM64.5364 64.8769C64.5364 65.1862 64.6128 65.4744 64.7117 65.7505H45.4114C50.2122 65.7505 54.1053 61.0508 54.1053 55.2505C54.1053 49.4502 50.2122 44.7505 45.4114 44.7505H64.71C64.6111 45.0265 64.5347 45.3148 64.5347 45.6258C64.5347 47.0759 65.701 48.2499 67.1416 48.2499C67.4506 48.2499 67.7369 48.173 68.0112 48.0734V62.4258C67.7369 62.3279 67.4506 62.2493 67.1416 62.2493C65.7028 62.2511 64.5364 63.4269 64.5364 64.8769ZM61.0582 51.6061C59.6176 51.6061 58.4513 53.1715 58.4513 55.1055C58.4513 57.0395 59.6176 58.6049 61.0582 58.6049C62.4988 58.6049 63.6651 57.0395 63.6651 55.1055C63.6651 53.1715 62.4988 51.6061 61.0582 51.6061ZM49.0511 48.9418C49.0771 48.9924 49.0979 49.0606 49.1153 49.1444C49.1344 49.2283 49.1465 49.3348 49.1517 49.4624C49.1604 49.5899 49.1639 49.7489 49.1639 49.9393C49.1639 50.1507 49.1587 50.3307 49.1483 50.4757C49.1361 50.6224 49.117 50.743 49.0945 50.8373C49.0667 50.9334 49.032 51.0033 48.9869 51.0452C48.94 51.0889 48.8758 51.1116 48.7959 51.1116C48.7161 51.1116 48.5911 51.061 48.4158 50.9596C48.2405 50.8566 48.0271 50.7482 47.7754 50.6294C47.5237 50.5106 47.2287 50.4006 46.8954 50.3027C46.5622 50.2049 46.1977 50.156 45.7985 50.156C45.4861 50.156 45.2153 50.1927 44.9845 50.2695C44.7519 50.3464 44.5575 50.4512 44.403 50.5858C44.2486 50.7203 44.1305 50.8828 44.0559 51.0697C43.9795 51.2584 43.9414 51.4593 43.9414 51.669C43.9414 51.9834 44.0264 52.2542 44.1965 52.4848C44.3666 52.7155 44.594 52.9181 44.8821 53.0963C45.1685 53.2763 45.493 53.4423 45.854 53.5995C46.215 53.7567 46.5847 53.9227 46.9614 54.0957C47.338 54.2721 47.7077 54.4695 48.0704 54.6932C48.4332 54.915 48.756 55.1806 49.0372 55.4898C49.3201 55.8008 49.5492 56.1642 49.7228 56.5835C49.8963 57.0028 49.9831 57.4955 49.9831 58.065C49.9831 58.8076 49.8443 59.461 49.57 60.02C49.2958 60.5809 48.9226 61.0508 48.4505 61.4264C47.9785 61.8021 47.43 62.0833 46.8 62.272C46.7201 62.2965 46.6333 62.307 46.5518 62.3262V64.2375H44.8422V62.5516C44.8196 62.5516 44.8005 62.5568 44.7779 62.5568C44.2937 62.5568 43.8424 62.5166 43.4259 62.438C43.0093 62.3594 42.6414 62.2616 42.3237 62.1515C42.0044 62.0397 41.7388 61.9209 41.5254 61.7986C41.3119 61.6763 41.1574 61.568 41.0637 61.4736C40.97 61.3793 40.9023 61.243 40.8623 61.0648C40.8224 60.8866 40.8016 60.628 40.8016 60.2926C40.8016 60.0672 40.8085 59.8768 40.8242 59.7248C40.838 59.571 40.8623 59.447 40.8953 59.3509C40.9283 59.2566 40.9717 59.1884 41.0255 59.1482C41.0793 59.1098 41.1435 59.0888 41.2147 59.0888C41.3171 59.0888 41.4594 59.1482 41.6451 59.2705C41.8291 59.3893 42.0669 59.5239 42.3567 59.6689C42.6466 59.8139 42.992 59.9467 43.3946 60.0672C43.7956 60.1878 44.2625 60.2489 44.7901 60.2489C45.1372 60.2489 45.4496 60.207 45.7239 60.1231C45.9981 60.0393 46.2324 59.9205 46.4251 59.7685C46.616 59.6147 46.7618 59.4243 46.8642 59.1989C46.9666 58.9735 47.0169 58.7202 47.0169 58.4424C47.0169 58.121 46.9284 57.8449 46.7566 57.616C46.583 57.3854 46.3574 57.1828 46.0779 57.0028C45.7985 56.8229 45.4826 56.6569 45.1285 56.5014C44.7727 56.3442 44.4082 56.1782 44.0316 56.0035C43.655 55.8288 43.2888 55.6296 42.9347 55.4077C42.5806 55.1858 42.263 54.9203 41.9853 54.6093C41.7076 54.3001 41.4802 53.9332 41.3067 53.5121C41.1331 53.0893 41.0463 52.5827 41.0463 51.9922C41.0463 51.3143 41.1713 50.7185 41.4212 50.2066C41.6711 49.693 42.0079 49.2667 42.4314 48.9278C42.8549 48.5888 43.3547 48.3355 43.9292 48.1678C44.2243 48.0822 44.5297 48.0193 44.8439 47.9774V46.1691H46.5535V47.9774C46.6212 47.9861 46.6889 47.9826 46.7566 47.9931C47.0898 48.0437 47.4022 48.1119 47.6921 48.1992C47.9802 48.2866 48.2371 48.3827 48.461 48.4927C48.6849 48.6028 48.8341 48.6902 48.9088 48.7635C48.9764 48.8282 49.025 48.8893 49.0511 48.9418ZM36.7194 55.2505C36.7194 61.0491 40.6107 65.7505 45.4114 65.7505H26.1129C26.2101 65.4744 26.2882 65.1862 26.2882 64.8769C26.2882 63.4269 25.1201 62.2511 23.6813 62.2511C23.3723 62.2511 23.0859 62.3297 22.8117 62.4275V48.0752C23.0859 48.1748 23.3723 48.2516 23.6813 48.2516C25.1219 48.2516 26.2882 47.0776 26.2882 45.6275C26.2882 45.3165 26.2101 45.0283 26.1129 44.7522H45.4114C40.6107 44.7505 36.7194 49.4519 36.7194 55.2505ZM29.7647 51.6061C28.3241 51.6061 27.1578 53.1715 27.1578 55.1055C27.1578 57.0395 28.3258 58.6049 29.7647 58.6049C31.2053 58.6049 32.3716 57.0395 32.3716 55.1055C32.3716 53.1715 31.2053 51.6061 29.7647 51.6061Z" fill="white"/>
</svg>
