<svg width="30" height="30" viewBox="0 0 30 30" fill="none" xmlns="http://www.w3.org/2000/svg">
<path fill-rule="evenodd" clip-rule="evenodd" d="M0.211335 3.60315C0.510375 1.39445 2.45934 0 4.48506 0H8.33772C10.2747 0 11.9943 1.23944 12.6068 3.07698L14.181 7.79944C14.8575 9.82924 13.6629 12.0054 11.5872 12.5244C11.0797 12.6513 10.9046 13.2832 11.2746 13.6533L16.3467 18.7254C16.7168 19.0954 17.3487 18.9202 17.4756 18.4128C17.9946 16.3371 20.1708 15.1425 22.2006 15.819L26.923 17.3932C28.7605 18.0057 30 19.7253 30 21.6623V25.515C30 27.5406 28.6056 29.4897 26.3969 29.7887C25.3671 29.9282 24.3165 30 23.25 30C10.4094 30 0 19.5906 0 6.75C0 5.68347 0.0719098 4.63295 0.211335 3.60315Z" fill="white"/>
</svg>
