<svg width="30" height="30" viewBox="0 0 30 30" fill="none" xmlns="http://www.w3.org/2000/svg">
<path d="M15 0C18.9782 0 22.7936 1.58035 25.6066 4.3934C28.4196 7.20644 30 11.0218 30 15C30 18.9782 28.4196 22.7936 25.6066 25.6066C22.7936 28.4196 18.9782 30 15 30C11.0218 30 7.20644 28.4196 4.3934 25.6066C1.58035 22.7936 0 18.9782 0 15C0 11.0218 1.58035 7.20644 4.3934 4.3934C7.20644 1.58035 11.0218 0 15 0ZM15.795 6.41143C14.0507 6.41143 12.6836 6.90643 11.67 7.89643C10.6329 8.88643 10.1379 10.2536 10.1379 11.9979H12.825C12.825 11.0079 13.0136 10.23 13.4143 9.68786C13.8621 9.02786 14.5929 8.72143 15.63 8.72143C16.4314 8.72143 17.0679 8.93357 17.5157 9.38143C17.94 9.82928 18.1757 10.4421 18.1757 11.22C18.1757 11.8093 17.9636 12.375 17.5393 12.8936L17.2564 13.2236C15.7243 14.5907 14.805 15.5807 14.4986 16.2171C14.1686 16.8536 14.0271 17.6314 14.0271 18.5271V18.8571H16.7379V18.5271C16.7379 17.9614 16.8557 17.4664 17.0914 16.995C17.3036 16.5707 17.61 16.17 18.0343 15.8164C19.1657 14.8264 19.8493 14.19 20.0614 13.9543C20.6271 13.2 20.9336 12.2336 20.9336 11.055C20.9336 9.61714 20.4621 8.48571 19.5193 7.66071C18.5764 6.81214 17.3271 6.41143 15.795 6.41143ZM15.3707 20.0121C14.8901 19.9991 14.4239 20.1771 14.0743 20.5071C13.9017 20.6697 13.766 20.8676 13.6766 21.0872C13.5871 21.3068 13.5459 21.5431 13.5557 21.78C13.5557 22.2986 13.7207 22.7229 14.0743 23.0529C14.4213 23.3897 14.8871 23.576 15.3707 23.5714C15.8893 23.5714 16.3136 23.4064 16.6671 23.0764C16.8434 22.9105 16.9828 22.7093 17.0762 22.4859C17.1696 22.2626 17.215 22.022 17.2093 21.78C17.2138 21.5437 17.1702 21.309 17.081 21.0902C16.9918 20.8714 16.8591 20.673 16.6907 20.5071C16.332 20.1765 15.8584 19.9989 15.3707 20.0121Z" fill="white"/>
</svg>
