<svg width="50" height="50" viewBox="0 0 50 50" fill="none" xmlns="http://www.w3.org/2000/svg">
<path d="M25 46.875C37.0812 46.875 46.875 37.0812 46.875 25C46.875 12.9188 37.0812 3.125 25 3.125C12.9188 3.125 3.125 12.9188 3.125 25C3.125 37.0812 12.9188 46.875 25 46.875Z" fill="url(#paint0_linear_318_283)"/>
<path d="M35.9166 15.9512C36.1113 14.6927 34.9147 13.6993 33.7956 14.1906L11.5075 23.9762C10.7051 24.3286 10.7638 25.5442 11.5961 25.8092L16.1923 27.273C17.0697 27.5523 18.0195 27.4078 18.7856 26.8786L29.1484 19.7192C29.4609 19.5033 29.8016 19.9477 29.5345 20.2228L22.0752 27.9134C21.3516 28.6595 21.4952 29.9237 22.3656 30.4695L30.7172 35.7067C31.6539 36.2941 32.8589 35.7041 33.0341 34.572L35.9166 15.9512Z" fill="white"/>
<defs>
<linearGradient id="paint0_linear_318_283" x1="25" y1="3.125" x2="25" y2="46.875" gradientUnits="userSpaceOnUse">
<stop stop-color="#37BBFE"/>
<stop offset="1" stop-color="#007DBB"/>
</linearGradient>
</defs>
</svg>
