<svg width="50" height="50" viewBox="0 0 50 50" fill="none" xmlns="http://www.w3.org/2000/svg">
<path d="M16.4063 47.8125C10.9375 47.8125 5.46875 46.25 0.781252 43.125C0.156252 42.6562 1.69128e-06 42.0312 0.156252 41.25C0.468752 40.625 1.09375 40.1562 1.875 40.1562C5.46875 40.625 8.90625 40 11.875 38.4375C8.90625 37.1875 6.40625 34.6875 5.46875 31.4062C5.3125 30.9375 5.46875 30.3125 5.78125 29.8438L5.9375 29.6875C3.59375 27.5 2.03125 24.375 2.03125 21.0938C2.03125 20.4688 2.34375 20 2.8125 19.6875C2.96875 19.5313 3.28125 19.5312 3.4375 19.5312C2.5 17.8125 2.03125 15.9375 2.03125 14.0625C2.03125 12.0312 2.5 10 3.59375 8.28125C3.75 7.8125 4.21875 7.5 4.84375 7.5C5.3125 7.5 5.9375 7.65625 6.25 8.125C9.84375 12.6562 14.8438 15.9375 20.4688 17.1875C20.4688 10.3125 26.0938 4.6875 32.9688 4.6875C36.4062 4.6875 39.6875 6.09375 42.0312 8.59375C43.5938 8.125 44.8438 7.34375 46.25 6.5625C46.875 6.25 47.6562 6.25 48.125 6.71875C48.4375 7.1875 48.5938 7.8125 48.2812 8.4375L45.9375 13.125L48.9062 14.0625C49.5312 14.375 50 14.8437 50 15.4687C50 16.0937 49.8438 16.7187 49.2188 17.0312L45.1562 19.375C44.6875 33.4375 33.9062 47.8125 16.4063 47.8125Z" fill="#00ACED"/>
</svg>
