<svg width="50" height="50" viewBox="0 0 50 50" fill="none" xmlns="http://www.w3.org/2000/svg">
<g clip-path="url(#clip0_317_269)">
<path d="M25 0C12.6562 0 0 2.65625 0 21.875C0 32.1875 3.59375 38.5938 10.9375 41.5625V47.3438C10.9375 48.4375 11.5625 49.375 12.5 49.8438C12.8125 50 13.2812 50 13.5938 50C14.2188 50 15 49.6875 15.4687 49.2188L21.0938 43.5938C22.3438 43.5938 23.5938 43.75 25 43.75C37.3438 43.75 50 41.0938 50 21.875C50 2.65625 37.3438 0 25 0Z" fill="#7B519C"/>
<path d="M24.2188 14.2188C27.9688 14.2188 31.0937 17.3438 31.0937 21.0938C31.0937 22.0312 31.7187 22.6562 32.6562 22.6562C33.5937 22.6562 34.2187 22.0312 34.2187 21.0938C34.2187 15.625 29.6875 11.0938 24.2188 11.0938C23.2812 11.0938 22.6562 11.7188 22.6562 12.6563C22.6562 13.5938 23.2812 14.2188 24.2188 14.2188Z" fill="white"/>
<path d="M24.2188 19.0625C25.3125 19.0625 26.25 20 26.25 21.0938C26.25 22.0313 26.875 22.6563 27.8125 22.6563C28.75 22.6563 29.375 22.0313 29.375 21.0938C29.375 18.2813 27.0312 15.9375 24.2188 15.9375C23.2812 15.9375 22.6562 16.5625 22.6562 17.5C22.6562 18.4375 23.2812 19.0625 24.2188 19.0625Z" fill="white"/>
<path d="M24.2188 6.25C23.2812 6.25 22.6562 6.875 22.6562 7.8125C22.6562 8.75 23.2812 9.375 24.2188 9.375C30.625 9.375 35.9375 14.6875 35.9375 21.0938C35.9375 22.0312 36.5625 22.6562 37.5 22.6562C38.4375 22.6562 39.0625 22.0312 39.0625 21.0938C39.0625 12.9688 32.3438 6.25 24.2188 6.25Z" fill="white"/>
<path d="M34.2188 26.7188L33.9063 26.5625C33.9063 26.5625 30.4688 24.8438 29.8438 24.6875C28.5938 24.2188 27.3438 24.5312 26.5625 25.625L26.4062 25.9375C26.0938 26.4063 25.625 27.0312 25.3125 27.3438C24.5313 27.0312 23.125 26.4062 21.25 24.8437C20 23.75 19.0625 22.3438 18.5937 21.5625C18.75 21.4062 18.75 21.4063 18.9063 21.25C19.0625 21.0938 19.2187 20.9375 19.375 20.7812C19.6875 20.4688 19.8437 20.1563 20.1562 19.6875C20.4687 18.9063 20.4687 18.125 20.1562 17.1875C20 16.875 19.375 15.4687 18.9063 14.375L18.2812 13.125C17.6562 11.5625 16.7188 11.25 15.625 11.25C15.4688 10.9375 15.3125 10.9375 15 10.9375C13.75 10.9375 12.6562 11.4063 11.875 12.1875C11.0937 12.9688 9.375 14.6875 9.375 18.125C9.375 20.9375 11.0937 23.5938 12.0312 25L12.1875 25.1563C15.1563 29.5312 18.9062 32.6562 22.6562 34.2188C25.9375 35.625 27.8125 35.9375 29.0625 35.9375C29.6875 35.9375 30.1562 35.9375 30.4688 35.7812C32.5 35.3125 34.8438 33.9062 35.4688 32.0312C35.7813 30.9375 36.25 29.0625 35.625 27.9688C35.3125 27.3438 34.6875 27.0312 34.2188 26.7188Z" fill="white"/>
</g>
<defs>
<clipPath id="clip0_317_269">
<rect width="50" height="50" fill="white"/>
</clipPath>
</defs>
</svg>
