<svg width="50" height="50" viewBox="0 0 50 50" fill="none" xmlns="http://www.w3.org/2000/svg">
<path d="M26.5625 0C13.5938 0 3.125 10.4688 3.125 23.4375C3.125 28.75 4.84375 33.75 8.125 37.8125L4.84375 47.8125C4.6875 48.4375 4.84375 49.0625 5.3125 49.5312C5.46875 49.8438 5.9375 50 6.25 50C6.40625 50 6.71875 50 6.875 49.8438L17.6562 45C20.4688 46.25 23.4375 46.875 26.5625 46.875C39.5312 46.875 50 36.4062 50 23.4375C50 10.4688 39.5312 0 26.5625 0Z" fill="#25D366"/>
<path d="M40.1563 32.0312C39.5313 33.9062 37.1875 35.4688 35.1562 35.7812C34.6875 35.9375 34.2188 35.9375 33.5938 35.9375C32.3438 35.9375 30.4688 35.625 27.1875 34.2188C23.4375 32.6562 19.6875 29.375 16.7187 25.1563V25C15.7812 23.5938 14.0625 20.9375 14.0625 18.125C14.0625 14.6875 15.7812 12.9688 16.4062 12.1875C17.1875 11.4063 18.2812 10.9375 19.5312 10.9375C19.8438 10.9375 20 10.9375 20.3125 10.9375C21.4062 10.9375 22.1875 11.25 22.9688 12.8125L23.5938 14.0625C24.0625 15.3125 24.6875 16.7188 24.8437 16.875C25.3125 17.8125 25.3125 18.5937 24.8437 19.375C24.6875 19.8437 24.375 20.1563 24.0625 20.4688C23.9062 20.7813 23.75 20.9375 23.5938 20.9375C23.4375 21.0937 23.4375 21.0938 23.2812 21.25C23.75 22.0313 24.6875 23.4375 25.9375 24.5312C27.8125 26.25 29.2188 26.7187 30 27.0312C30.3125 26.7187 30.625 26.0937 31.0938 25.625L31.25 25.3125C32.0312 24.2188 33.2812 23.9063 34.5312 24.375C35.1562 24.6875 38.5938 26.25 38.5938 26.25L38.9062 26.4062C39.375 26.7187 40 26.875 40.3125 27.5C40.9375 28.9062 40.4688 30.9375 40.1563 32.0312Z" fill="white"/>
</svg>
