<svg width="50" height="50" viewBox="0 0 50 50" fill="none" xmlns="http://www.w3.org/2000/svg">
<g clip-path="url(#clip0_319_295)">
<path d="M49.0625 13.4375C48.75 10.9375 46.5625 8.75 43.9062 8.59375C28.5938 7.5 21.0938 7.5 5.9375 8.59375C3.4375 8.75 1.25 10.9375 0.9375 13.4375C-0.3125 22.6563 -0.3125 27.3437 0.9375 36.5625C1.25 39.0625 3.59375 41.25 6.09375 41.4062C13.5938 41.875 19.375 42.1875 25 42.1875C30.625 42.1875 36.4062 41.875 44.0625 41.4062C46.5625 41.25 48.75 39.0625 49.2188 36.5625C50.3125 27.3437 50.3125 22.6563 49.0625 13.4375Z" fill="#FF0000"/>
<path d="M32.9688 27.6563L23.5938 33.9063C23.125 34.2188 22.5 34.375 21.875 34.375C21.4062 34.375 20.7813 34.2188 20.4688 34.0625C19.375 33.4375 18.75 32.5 18.75 31.25V18.75C18.75 17.5 19.375 16.5625 20.4688 15.9375C21.5625 15.3125 22.6562 15.4688 23.75 16.0938L33.125 22.3438C34.0625 22.9688 34.5313 23.9063 34.5313 25C34.5313 26.0938 33.9063 27.0313 32.9688 27.6563Z" fill="white"/>
</g>
<defs>
<clipPath id="clip0_319_295">
<rect width="50" height="50" fill="white"/>
</clipPath>
</defs>
</svg>
